<svg xmlns="http://www.w3.org/2000/svg" xmlns:xlink="http://www.w3.org/1999/xlink" width="80" zoomAndPan="magnify" viewBox="0 0 60 60" height="80" preserveAspectRatio="xMidYMid meet" version="1.0"><defs><clipPath id="bad2c54941"><path d="M 13 20 L 27 20 L 27 34 L 13 34 Z M 13 20 " clip-rule="nonzero"/></clipPath><clipPath id="606bbbb83b"><path d="M 10.410156 22.160156 L 23.433594 18.539062 L 26.601562 29.933594 L 13.578125 33.554688 Z M 10.410156 22.160156 " clip-rule="nonzero"/></clipPath><clipPath id="5629f0308f"><path d="M 16.921875 20.351562 L 26.601562 29.933594 L 13.578125 33.554688 Z M 16.921875 20.351562 " clip-rule="nonzero"/></clipPath><clipPath id="54eedb1d76"><path d="M 15.117188 32.972656 L 25.015625 32.972656 L 25.015625 47.4375 L 15.117188 47.4375 Z M 15.117188 32.972656 " clip-rule="nonzero"/></clipPath><clipPath id="dd832a2db7"><path d="M 18.417969 33.257812 C 18.921875 33.085938 19.5 32.972656 20.066406 32.972656 C 20.632812 32.972656 21.179688 33.070312 21.679688 33.242188 C 21.691406 33.246094 21.703125 33.246094 21.714844 33.253906 C 23.597656 33.941406 24.988281 35.765625 25.015625 37.945312 L 25.015625 47.4375 L 15.117188 47.4375 L 15.117188 37.953125 C 15.140625 35.753906 16.511719 33.929688 18.417969 33.257812 Z M 18.417969 33.257812 " clip-rule="nonzero"/></clipPath><clipPath id="0c18ee27c5"><path d="M 34 19 L 49 19 L 49 33 L 34 33 Z M 34 19 " clip-rule="nonzero"/></clipPath><clipPath id="9e7356e662"><path d="M 35.882812 18.117188 L 49.589844 20.277344 L 47.425781 33.980469 L 33.722656 31.820312 Z M 35.882812 18.117188 " clip-rule="nonzero"/></clipPath><clipPath id="333840c9bd"><path d="M 42.734375 19.199219 L 48.507812 27.128906 L 40.574219 32.902344 L 34.804688 24.96875 Z M 42.734375 19.199219 " clip-rule="nonzero"/></clipPath><clipPath id="12185cb46f"><path d="M 24.832031 29.589844 L 37.019531 29.589844 L 37.019531 47.4375 L 24.832031 47.4375 Z M 24.832031 29.589844 " clip-rule="nonzero"/></clipPath><clipPath id="8586ae6f10"><path d="M 28.894531 29.941406 C 29.519531 29.730469 30.230469 29.589844 30.929688 29.589844 C 31.625 29.589844 32.296875 29.710938 32.914062 29.921875 C 32.925781 29.929688 32.941406 29.929688 32.953125 29.933594 C 35.273438 30.785156 36.984375 33.027344 37.019531 35.714844 L 37.019531 47.4375 L 24.832031 47.4375 L 24.832031 35.722656 C 24.863281 33.015625 26.546875 30.773438 28.894531 29.941406 Z M 28.894531 29.941406 " clip-rule="nonzero"/></clipPath><clipPath id="b541b4ddff"><path d="M 23 13 L 38 13 L 38 29 L 23 29 Z M 23 13 " clip-rule="nonzero"/></clipPath><clipPath id="4760af1a6b"><path d="M 22.574219 14.855469 L 36.984375 12.5625 L 39.273438 26.972656 L 24.867188 29.265625 Z M 22.574219 14.855469 " clip-rule="nonzero"/></clipPath><clipPath id="dc0b6d4f6c"><path d="M 29.777344 13.710938 L 37.859375 18.066406 L 36.523438 27.410156 L 27.617188 28.828125 L 23.449219 20.359375 Z M 29.777344 13.710938 " clip-rule="nonzero"/></clipPath><clipPath id="45d49eae34"><path d="M 36.8125 33.554688 L 46.5 33.554688 L 46.5 47.4375 L 36.8125 47.4375 Z M 36.8125 33.554688 " clip-rule="nonzero"/></clipPath><clipPath id="70194a0a69"><path d="M 40.042969 33.835938 C 40.539062 33.667969 41.105469 33.554688 41.660156 33.554688 C 42.214844 33.554688 42.746094 33.652344 43.238281 33.820312 C 43.246094 33.824219 43.257812 33.824219 43.269531 33.832031 C 45.113281 34.507812 46.472656 36.289062 46.5 38.417969 L 46.5 47.4375 L 36.8125 47.4375 L 36.8125 38.425781 C 36.839844 36.28125 38.179688 34.496094 40.042969 33.835938 Z M 40.042969 33.835938 " clip-rule="nonzero"/></clipPath></defs><rect x="-6" width="72" fill="#0f1a19" y="-6" height="72" fill-opacity="1"/><rect x="-6" width="72" fill="#0f1a19" y="-6" height="72" fill-opacity="1"/><g clip-path="url(#bad2c54941)"><g clip-path="url(#606bbbb83b)"><g clip-path="url(#5629f0308f)"><path fill="#944e1c" d="M 10.410156 22.160156 L 23.433594 18.539062 L 26.601562 29.933594 L 13.578125 33.554688 Z M 10.410156 22.160156 " fill-opacity="1" fill-rule="nonzero"/></g></g></g><g clip-path="url(#54eedb1d76)"><g clip-path="url(#dd832a2db7)"><path fill="#944e1c" d="M 15.117188 32.972656 L 25.015625 32.972656 L 25.015625 47.4375 L 15.117188 47.4375 Z M 15.117188 32.972656 " fill-opacity="1" fill-rule="nonzero"/></g></g><g clip-path="url(#0c18ee27c5)"><g clip-path="url(#9e7356e662)"><g clip-path="url(#333840c9bd)"><path fill="#944e1c" d="M 35.882812 18.117188 L 49.589844 20.277344 L 47.425781 33.980469 L 33.722656 31.820312 Z M 35.882812 18.117188 " fill-opacity="1" fill-rule="nonzero"/></g></g></g><g clip-path="url(#12185cb46f)"><g clip-path="url(#8586ae6f10)"><path fill="#b15c1f" d="M 24.832031 29.589844 L 37.019531 29.589844 L 37.019531 47.4375 L 24.832031 47.4375 Z M 24.832031 29.589844 " fill-opacity="1" fill-rule="nonzero"/></g></g><g clip-path="url(#b541b4ddff)"><g clip-path="url(#4760af1a6b)"><g clip-path="url(#dc0b6d4f6c)"><path fill="#b15c1f" d="M 22.574219 14.855469 L 36.984375 12.5625 L 39.273438 26.972656 L 24.867188 29.265625 Z M 22.574219 14.855469 " fill-opacity="1" fill-rule="nonzero"/></g></g></g><g clip-path="url(#45d49eae34)"><g clip-path="url(#70194a0a69)"><path fill="#944e1c" d="M 36.8125 33.554688 L 46.5 33.554688 L 46.5 47.4375 L 36.8125 47.4375 Z M 36.8125 33.554688 " fill-opacity="1" fill-rule="nonzero"/></g></g></svg>