<svg xmlns="http://www.w3.org/2000/svg" xmlns:xlink="http://www.w3.org/1999/xlink" width="70" zoomAndPan="magnify" viewBox="0 0 52.5 52.499999" height="70" preserveAspectRatio="xMidYMid meet" version="1"><defs><clipPath id="eb97c24a95"><path d="M 0 0 L 52 0 L 52 52 L 0 52 Z M 0 0" clip-rule="nonzero"/></clipPath><clipPath id="d43fb8277c"><path d="M 19.2 7 L 32.8 7 L 32.8 20.6 L 19.2 20.6 Z M 19.2 7" clip-rule="nonzero"/></clipPath><clipPath id="13234398aa"><path d="M 26 7 C 22.2 7 19.2 10.1 19.2 13.8 C 19.2 17.6 22.2 20.6 26 20.6 C 29.8 20.6 32.8 17.6 32.8 13.8 C 32.8 10.1 29.8 7 26 7 Z M 26 7" clip-rule="nonzero"/></clipPath><clipPath id="c9351e39cb"><path d="M 15.2 28.5 L 36.8 28.5 L 36.8 44.7 L 15.2 44.7 Z M 15.2 28.5" clip-rule="nonzero"/></clipPath><clipPath id="fba1841113"><path d="M 22.4 44.3 C 23.5 44.6 24.8 44.7 26 44.7 C 27.3 44.7 28.5 44.6 29.6 44.4 C 29.6 44.3 29.6 44.3 29.6 44.3 C 33.7 43.4 36.8 40.9 36.8 37.9 L 36.8 28.5 L 15.2 28.5 L 15.2 37.9 C 15.3 40.9 18.3 43.4 22.4 44.3 Z M 22.4 44.3" clip-rule="nonzero"/></clipPath><clipPath id="5aa4ae93d1"><path d="M 15.2 22 L 36.8 22 L 36.8 35.1 L 15.2 35.1 Z M 15.2 22" clip-rule="nonzero"/></clipPath><clipPath id="1c60cbf230"><path d="M 22.4 22.4 C 23.5 22.1 24.8 22 26 22 C 27.3 22 28.5 22.1 29.6 22.3 C 29.6 22.4 29.6 22.4 29.6 22.4 C 33.7 23.3 36.8 25.8 36.8 28.7 L 36.8 35.1 L 15.2 35.1 L 15.2 28.7 C 15.3 25.8 18.3 23.3 22.4 22.4 Z M 22.4 22.4" clip-rule="nonzero"/></clipPath></defs><g clip-path="url(#eb97c24a95)"><path fill="#0f1a19" d="M 0 0 L 52 0 L 52 52 L 0 52 Z M 0 0" fill-opacity="1" fill-rule="nonzero"/><path fill="#0f1a19" d="M 0 0 L 52 0 L 52 52 L 0 52 Z M 0 0" fill-opacity="1" fill-rule="nonzero"/></g><g clip-path="url(#d43fb8277c)"><g clip-path="url(#13234398aa)"><path fill="#004b91" d="M 19.2 7 L 32.8 7 L 32.8 20.6 L 19.2 20.6 Z M 19.2 7" fill-opacity="1" fill-rule="nonzero"/></g></g><g clip-path="url(#c9351e39cb)"><g clip-path="url(#fba1841113)"><path fill="#d5a10f" d="M 15.2 28.5 L 36.8 28.5 L 36.8 44.7 L 15.2 44.7 Z M 15.2 28.5" fill-opacity="1" fill-rule="nonzero"/></g></g><g clip-path="url(#5aa4ae93d1)"><g clip-path="url(#1c60cbf230)"><path fill="#d5a10f" d="M 15.2 22 L 36.8 22 L 36.8 35.1 L 15.2 35.1 Z M 15.2 22" fill-opacity="1" fill-rule="nonzero"/></g></g></svg>