<svg xmlns="http://www.w3.org/2000/svg" xmlns:xlink="http://www.w3.org/1999/xlink" width="800" zoomAndPan="magnify" viewBox="0 0 600 599.999999" height="800" preserveAspectRatio="xMidYMid meet" version="1.0"><defs><g/><clipPath id="d75617dd29"><path d="M 143 104 L 600 104 L 600 600 L 143 600 Z M 143 104 " clip-rule="nonzero"/></clipPath><clipPath id="e8ca0361c6"><path d="M 254.761719 41.007812 L 891.699219 168.304688 L 780.476562 724.808594 L 143.542969 597.511719 Z M 254.761719 41.007812 " clip-rule="nonzero"/></clipPath><clipPath id="c37a1b57cf"><path d="M 572.765625 104.5625 L 779.546875 724.621094 L 143.542969 597.511719 Z M 572.765625 104.5625 " clip-rule="nonzero"/></clipPath><clipPath id="d299504098"><path d="M 215.09375 289.546875 L 378.074219 289.546875 L 378.074219 562 L 215.09375 562 Z M 215.09375 289.546875 " clip-rule="nonzero"/></clipPath><clipPath id="a6c6179b78"><path d="M 378.074219 425.578125 L 361.558594 470.5 L 354.207031 521.765625 L 323.496094 534.035156 L 296.582031 561.609375 L 269.671875 534.035156 L 238.960938 521.765625 L 231.609375 470.5 L 215.09375 425.578125 L 231.609375 380.652344 L 238.960938 329.386719 L 269.671875 317.117188 L 296.582031 289.546875 L 323.496094 317.117188 L 354.207031 329.386719 L 361.558594 380.652344 Z M 378.074219 425.578125 " clip-rule="nonzero"/></clipPath><clipPath id="852c6101fd"><path d="M 235.039062 422.261719 L 358.148438 422.261719 L 358.148438 551.140625 L 235.039062 551.140625 Z M 235.039062 422.261719 " clip-rule="nonzero"/></clipPath><clipPath id="06a3068d93"><path d="M 276.097656 547.933594 C 282.410156 549.832031 289.585938 551.078125 296.628906 551.078125 C 303.667969 551.078125 310.445312 550.007812 316.691406 548.113281 C 316.824219 548.050781 316.957031 548.050781 317.089844 547.992188 C 340.542969 540.402344 357.816406 520.359375 358.148438 497.046875 L 358.148438 422.261719 L 235.039062 422.261719 L 235.039062 496.992188 C 235.371094 520.476562 252.378906 540.519531 276.097656 547.933594 Z M 276.097656 547.933594 " clip-rule="nonzero"/></clipPath><clipPath id="cd3b4a5e1a"><path d="M 271.292969 460.359375 L 320.53125 460.359375 L 320.53125 510.625 L 271.292969 510.625 Z M 271.292969 460.359375 " clip-rule="nonzero"/></clipPath><clipPath id="65b3b7702b"><path d="M 238.523438 520.617188 L 354.722656 520.617188 L 354.722656 581.203125 L 238.523438 581.203125 Z M 238.523438 520.617188 " clip-rule="nonzero"/></clipPath><clipPath id="ec5ea5c9a9"><path d="M 296.59375 581.203125 L 354.667969 520.617188 L 238.523438 520.617188 Z M 296.59375 581.203125 " clip-rule="nonzero"/></clipPath><clipPath id="588aba4f11"><path d="M 206.59375 221.671875 L 386.59375 221.671875 L 386.59375 382.816406 L 206.59375 382.816406 Z M 206.59375 221.671875 " clip-rule="nonzero"/></clipPath><clipPath id="18529218b0"><path d="M 89.753906 208.816406 L 244.578125 208.816406 L 244.578125 426.53125 L 89.753906 426.53125 Z M 89.753906 208.816406 " clip-rule="nonzero"/></clipPath><clipPath id="b1f6e6a62b"><path d="M 141.390625 422.304688 C 149.328125 424.855469 158.351562 426.527344 167.207031 426.527344 C 176.0625 426.527344 184.585938 425.09375 192.441406 422.542969 C 192.605469 422.464844 192.773438 422.464844 192.941406 422.386719 C 222.433594 412.1875 244.160156 385.253906 244.578125 352.941406 L 244.578125 208.816406 L 89.753906 208.816406 L 89.753906 352.835938 C 90.171875 385.414062 111.5625 412.347656 141.390625 422.304688 Z M 141.390625 422.304688 " clip-rule="nonzero"/></clipPath><clipPath id="9c5d34adc4"><path d="M 348.613281 208.816406 L 503.433594 208.816406 L 503.433594 426.53125 L 348.613281 426.53125 Z M 348.613281 208.816406 " clip-rule="nonzero"/></clipPath><clipPath id="b6a204eecc"><path d="M 400.246094 422.304688 C 408.183594 424.855469 417.207031 426.527344 426.0625 426.527344 C 434.921875 426.527344 443.441406 425.09375 451.296875 422.542969 C 451.464844 422.464844 451.632812 422.464844 451.796875 422.386719 C 481.292969 412.1875 503.015625 385.253906 503.433594 352.941406 L 503.433594 208.816406 L 348.613281 208.816406 L 348.613281 352.835938 C 349.03125 385.414062 370.417969 412.347656 400.246094 422.304688 Z M 400.246094 422.304688 " clip-rule="nonzero"/></clipPath><clipPath id="064270eb0b"><path d="M 349.738281 221.671875 L 490.308594 221.671875 L 490.308594 371 L 349.738281 371 Z M 349.738281 221.671875 " clip-rule="nonzero"/></clipPath><clipPath id="b53f21b2ab"><path d="M 387.238281 221.671875 L 452.808594 221.671875 C 462.753906 221.671875 472.292969 225.621094 479.324219 232.65625 C 486.359375 239.6875 490.308594 249.226562 490.308594 259.171875 L 490.308594 333.316406 C 490.308594 343.261719 486.359375 352.796875 479.324219 359.832031 C 472.292969 366.863281 462.753906 370.816406 452.808594 370.816406 L 387.238281 370.816406 C 377.292969 370.816406 367.753906 366.863281 360.71875 359.832031 C 353.6875 352.796875 349.738281 343.261719 349.738281 333.316406 L 349.738281 259.171875 C 349.738281 249.226562 353.6875 239.6875 360.71875 232.65625 C 367.753906 225.621094 377.292969 221.671875 387.238281 221.671875 Z M 387.238281 221.671875 " clip-rule="nonzero"/></clipPath><clipPath id="689aeadbcf"><path d="M 102.878906 221.671875 L 243.453125 221.671875 L 243.453125 371 L 102.878906 371 Z M 102.878906 221.671875 " clip-rule="nonzero"/></clipPath><clipPath id="e7bdca1160"><path d="M 140.378906 221.671875 L 205.953125 221.671875 C 215.898438 221.671875 225.433594 225.621094 232.46875 232.65625 C 239.5 239.6875 243.453125 249.226562 243.453125 259.171875 L 243.453125 333.316406 C 243.453125 343.261719 239.5 352.796875 232.46875 359.832031 C 225.433594 366.863281 215.898438 370.816406 205.953125 370.816406 L 140.378906 370.816406 C 130.433594 370.816406 120.894531 366.863281 113.863281 359.832031 C 106.832031 352.796875 102.878906 343.261719 102.878906 333.316406 L 102.878906 259.171875 C 102.878906 249.226562 106.832031 239.6875 113.863281 232.65625 C 120.894531 225.621094 130.433594 221.671875 140.378906 221.671875 Z M 140.378906 221.671875 " clip-rule="nonzero"/></clipPath><clipPath id="c302900c87"><path d="M 173.164062 244.972656 L 217.738281 244.972656 L 217.738281 289.542969 L 173.164062 289.542969 Z M 173.164062 244.972656 " clip-rule="nonzero"/></clipPath><clipPath id="09d2c9c34f"><path d="M 195.453125 244.972656 C 183.144531 244.972656 173.164062 254.949219 173.164062 267.257812 C 173.164062 279.566406 183.144531 289.542969 195.453125 289.542969 C 207.757812 289.542969 217.738281 279.566406 217.738281 267.257812 C 217.738281 254.949219 207.757812 244.972656 195.453125 244.972656 Z M 195.453125 244.972656 " clip-rule="nonzero"/></clipPath><clipPath id="f8785d27a2"><path d="M 420.023438 244.972656 L 464.59375 244.972656 L 464.59375 289.542969 L 420.023438 289.542969 Z M 420.023438 244.972656 " clip-rule="nonzero"/></clipPath><clipPath id="fe32846283"><path d="M 442.308594 244.972656 C 430 244.972656 420.023438 254.949219 420.023438 267.257812 C 420.023438 279.566406 430 289.542969 442.308594 289.542969 C 454.617188 289.542969 464.59375 279.566406 464.59375 267.257812 C 464.59375 254.949219 454.617188 244.972656 442.308594 244.972656 Z M 442.308594 244.972656 " clip-rule="nonzero"/></clipPath><clipPath id="104c5664cd"><path d="M 56.59375 114.792969 L 536.59375 114.792969 L 536.59375 174.792969 L 56.59375 174.792969 Z M 56.59375 114.792969 " clip-rule="nonzero"/></clipPath><clipPath id="b1a6ecf67c"><path d="M 56.59375 3.03125 L 536.59375 3.03125 L 536.59375 116.96875 L 56.59375 116.96875 Z M 56.59375 3.03125 " clip-rule="nonzero"/></clipPath><clipPath id="e7354c66d0"><path d="M 0 18.796875 L 600 18.796875 L 600 174.796875 L 0 174.796875 Z M 0 18.796875 " clip-rule="nonzero"/></clipPath><clipPath id="7a74f324b9"><path d="M 300 18.796875 L 0 174.796875 L 600 174.796875 Z M 300 18.796875 " clip-rule="nonzero"/></clipPath><clipPath id="6a195c810e"><path d="M 300 0 L 540 0 L 540 152.292969 L 300 152.292969 Z M 300 0 " clip-rule="nonzero"/></clipPath><clipPath id="9177a037ce"><path d="M 0 174.792969 L 596.976562 174.792969 L 596.976562 337.4375 L 0 337.4375 Z M 0 174.792969 " clip-rule="nonzero"/></clipPath><clipPath id="92230bcfc6"><path d="M 296.59375 337.4375 L 596.59375 174.792969 L -3.40625 174.792969 Z M 296.59375 337.4375 " clip-rule="nonzero"/></clipPath><clipPath id="f70a61f792"><path d="M 310 79 L 600 79 L 600 280 L 310 280 Z M 310 79 " clip-rule="nonzero"/></clipPath><clipPath id="b9d36a2c1b"><path d="M 310.378906 79.175781 L 600.527344 173.816406 L 550.675781 326.652344 L 260.527344 232.011719 Z M 310.378906 79.175781 " clip-rule="nonzero"/></clipPath><clipPath id="a6f921da31"><path d="M 405.339844 279.246094 L 600 173.644531 L 310.378906 79.175781 Z M 405.339844 279.246094 " clip-rule="nonzero"/></clipPath><clipPath id="11dbfe4d5b"><path d="M 541.078125 138.441406 L 599.992188 138.441406 L 599.992188 205.871094 L 541.078125 205.871094 Z M 541.078125 138.441406 " clip-rule="nonzero"/></clipPath><clipPath id="8ff4633afc"><path d="M 599.992188 172.105469 L 541.078125 205.773438 L 541.078125 138.441406 Z M 599.992188 172.105469 " clip-rule="nonzero"/></clipPath><clipPath id="714bfa1c2b"><path d="M 300.382812 76.152344 L 536.589844 76.152344 L 536.589844 338 L 300.382812 338 Z M 300.382812 76.152344 " clip-rule="nonzero"/></clipPath><clipPath id="73c1cbeace"><path d="M 536.589844 206.796875 L 300.382812 337.441406 L 300.382812 76.152344 Z M 536.589844 206.796875 " clip-rule="nonzero"/></clipPath><clipPath id="36d460fabd"><path d="M 1.746094 0 L 600 0 L 600 157.5 L 1.746094 157.5 Z M 1.746094 0 " clip-rule="nonzero"/></clipPath><clipPath id="6433065433"><path d="M 300.871094 157.5 L 600 0 L 1.746094 0 Z M 300.871094 157.5 " clip-rule="nonzero"/></clipPath><clipPath id="8f8b346a1d"><path d="M 296.597656 0 L 451.113281 0 L 451.113281 157.496094 L 296.597656 157.496094 Z M 296.597656 0 " clip-rule="nonzero"/></clipPath><clipPath id="dd07fd526f"><path d="M 451.113281 78.746094 L 296.597656 -0.00390625 L 296.597656 157.496094 Z M 451.113281 78.746094 " clip-rule="nonzero"/></clipPath><clipPath id="ea5abf042e"><path d="M 333 0 L 600 0 L 600 123 L 333 123 Z M 333 0 " clip-rule="nonzero"/></clipPath><clipPath id="22283c5720"><path d="M 364.695312 122.273438 L 333.6875 -29.054688 L 605.601562 -84.765625 L 636.605469 66.558594 Z M 364.695312 122.273438 " clip-rule="nonzero"/></clipPath><clipPath id="933bcd29b0"><path d="M 620.75 -9.03125 L 333.6875 -29.054688 L 364.695312 122.273438 Z M 620.75 -9.03125 " clip-rule="nonzero"/></clipPath><clipPath id="a7abb373e4"><path d="M 296.59375 0 L 379.828125 0 L 379.828125 82.644531 L 296.59375 82.644531 Z M 296.59375 0 " clip-rule="nonzero"/></clipPath><clipPath id="061e23f45b"><path d="M 258.824219 109.09375 L 341.175781 109.09375 L 341.175781 215.574219 L 258.824219 215.574219 Z M 258.824219 109.09375 " clip-rule="nonzero"/></clipPath><clipPath id="0057f3a4e7"><path d="M 341.175781 116.59375 L 341.175781 195.828125 C 341.175781 200.300781 338.292969 204.257812 334.039062 205.628906 L 307.136719 214.304688 C 302.496094 215.800781 297.503906 215.800781 292.863281 214.304688 L 265.960938 205.628906 C 261.707031 204.257812 258.824219 200.300781 258.824219 195.828125 L 258.824219 116.59375 C 258.824219 112.449219 262.179688 109.09375 266.324219 109.09375 L 333.675781 109.09375 C 337.820312 109.09375 341.175781 112.449219 341.175781 116.59375 Z M 341.175781 116.59375 " clip-rule="nonzero"/></clipPath><clipPath id="d18e6503f1"><path d="M 263.695312 109.09375 L 336.519531 109.09375 L 336.519531 166.808594 L 263.695312 166.808594 Z M 263.695312 109.09375 " clip-rule="nonzero"/></clipPath><clipPath id="3d21cc1991"><path d="M 300 166.808594 L 336.304688 109.09375 L 263.695312 109.09375 Z M 300 166.808594 " clip-rule="nonzero"/></clipPath><clipPath id="24c6c8d317"><path d="M 303 179 L 339 179 L 339 215 L 303 215 Z M 303 179 " clip-rule="nonzero"/></clipPath><clipPath id="9a2c058179"><path d="M 303.398438 214.996094 L 310.722656 179.617188 L 341.953125 186.078125 L 334.628906 221.460938 Z M 303.398438 214.996094 " clip-rule="nonzero"/></clipPath><clipPath id="f85a720815"><path d="M 338.292969 203.769531 L 310.722656 179.617188 L 303.398438 214.996094 Z M 338.292969 203.769531 " clip-rule="nonzero"/></clipPath><clipPath id="67e7a6f6f0"><path d="M 1.746094 3.101562 L 294.996094 3.101562 L 294.996094 296.351562 L 1.746094 296.351562 Z M 1.746094 3.101562 " clip-rule="nonzero"/></clipPath><clipPath id="857d825979"><path d="M 305.03125 1.550781 L 598.28125 1.550781 L 598.28125 294.800781 L 305.03125 294.800781 Z M 305.03125 1.550781 " clip-rule="nonzero"/></clipPath><clipPath id="5d5b264234"><path d="M 1.746094 306.738281 L 294.996094 306.738281 L 294.996094 599.988281 L 1.746094 599.988281 Z M 1.746094 306.738281 " clip-rule="nonzero"/></clipPath><clipPath id="59b8ee4f33"><path d="M 305.03125 305.191406 L 598.28125 305.191406 L 598.28125 598.441406 L 305.03125 598.441406 Z M 305.03125 305.191406 " clip-rule="nonzero"/></clipPath></defs><rect x="-60" width="720" fill="#ffffff" y="-60" height="719.999999" fill-opacity="1"/><rect x="-60" width="720" fill="#545454" y="-60" height="719.999999" fill-opacity="1"/><g clip-path="url(#d75617dd29)"><g clip-path="url(#e8ca0361c6)"><g clip-path="url(#c37a1b57cf)"><path fill="#4d4d4d" d="M 254.761719 41.007812 L 891.699219 168.304688 L 780.476562 724.808594 L 143.542969 597.511719 Z M 254.761719 41.007812 " fill-opacity="1" fill-rule="nonzero"/></g></g></g><g clip-path="url(#d299504098)"><g clip-path="url(#a6c6179b78)"><path fill="#b15c1f" d="M 378.074219 289.546875 L 378.074219 561.394531 L 215.09375 561.394531 L 215.09375 289.546875 Z M 378.074219 289.546875 " fill-opacity="1" fill-rule="nonzero"/></g></g><g clip-path="url(#852c6101fd)"><g clip-path="url(#06a3068d93)"><path fill="#b15c1f" d="M 235.039062 422.261719 L 358.148438 422.261719 L 358.148438 551.140625 L 235.039062 551.140625 Z M 235.039062 422.261719 " fill-opacity="1" fill-rule="nonzero"/></g></g><g clip-path="url(#cd3b4a5e1a)"><path fill="#b15c1f" d="M 271.292969 460.359375 L 320.53125 460.359375 L 320.53125 510.5625 L 271.292969 510.5625 Z M 271.292969 460.359375 " fill-opacity="1" fill-rule="nonzero"/></g><g clip-path="url(#65b3b7702b)"><g clip-path="url(#ec5ea5c9a9)"><path fill="#b15c1f" d="M 238.523438 520.617188 L 354.722656 520.617188 L 354.722656 581.203125 L 238.523438 581.203125 Z M 238.523438 520.617188 " fill-opacity="1" fill-rule="nonzero"/></g></g><g clip-path="url(#588aba4f11)"><path fill="#545454" d="M 206.59375 221.671875 L 386.621094 221.671875 L 386.621094 382.816406 L 206.59375 382.816406 Z M 206.59375 221.671875 " fill-opacity="1" fill-rule="nonzero"/></g><g clip-path="url(#18529218b0)"><g clip-path="url(#b1f6e6a62b)"><path fill="#ffffff" d="M 89.753906 208.816406 L 244.578125 208.816406 L 244.578125 426.53125 L 89.753906 426.53125 Z M 89.753906 208.816406 " fill-opacity="1" fill-rule="nonzero"/></g></g><g clip-path="url(#9c5d34adc4)"><g clip-path="url(#b6a204eecc)"><path fill="#ffffff" d="M 348.613281 208.816406 L 503.433594 208.816406 L 503.433594 426.53125 L 348.613281 426.53125 Z M 348.613281 208.816406 " fill-opacity="1" fill-rule="nonzero"/></g></g><g fill="#ffffff" fill-opacity="1"><g transform="translate(422.674405, 307.814671)"><g><path d="M 6.03125 -2.046875 C 6.03125 -1.347656 5.769531 -0.804688 5.25 -0.421875 C 4.738281 -0.046875 4.007812 0.140625 3.0625 0.140625 C 2.070312 0.140625 1.300781 -0.015625 0.75 -0.328125 L 0.75 -1.390625 C 1.101562 -1.203125 1.484375 -1.054688 1.890625 -0.953125 C 2.304688 -0.847656 2.707031 -0.796875 3.09375 -0.796875 C 3.6875 -0.796875 4.140625 -0.890625 4.453125 -1.078125 C 4.773438 -1.273438 4.9375 -1.566406 4.9375 -1.953125 C 4.9375 -2.242188 4.8125 -2.492188 4.5625 -2.703125 C 4.3125 -2.910156 3.816406 -3.15625 3.078125 -3.4375 C 2.378906 -3.695312 1.882812 -3.921875 1.59375 -4.109375 C 1.300781 -4.304688 1.082031 -4.523438 0.9375 -4.765625 C 0.789062 -5.015625 0.71875 -5.3125 0.71875 -5.65625 C 0.71875 -6.257812 0.96875 -6.738281 1.46875 -7.09375 C 1.96875 -7.445312 2.648438 -7.625 3.515625 -7.625 C 4.316406 -7.625 5.101562 -7.460938 5.875 -7.140625 L 5.46875 -6.21875 C 4.71875 -6.519531 4.039062 -6.671875 3.4375 -6.671875 C 2.894531 -6.671875 2.488281 -6.585938 2.21875 -6.421875 C 1.945312 -6.253906 1.8125 -6.023438 1.8125 -5.734375 C 1.8125 -5.523438 1.859375 -5.347656 1.953125 -5.203125 C 2.054688 -5.066406 2.222656 -4.9375 2.453125 -4.8125 C 2.679688 -4.6875 3.117188 -4.503906 3.765625 -4.265625 C 4.648438 -3.941406 5.25 -3.613281 5.5625 -3.28125 C 5.875 -2.957031 6.03125 -2.546875 6.03125 -2.046875 Z M 6.03125 -2.046875 "/></g></g></g><g clip-path="url(#064270eb0b)"><g clip-path="url(#b53f21b2ab)"><path fill="#070b0b" d="M 349.738281 221.671875 L 490.308594 221.671875 L 490.308594 371.027344 L 349.738281 371.027344 Z M 349.738281 221.671875 " fill-opacity="1" fill-rule="nonzero"/></g></g><g clip-path="url(#689aeadbcf)"><g clip-path="url(#e7bdca1160)"><path fill="#070b0b" d="M 102.878906 221.671875 L 243.453125 221.671875 L 243.453125 371.027344 L 102.878906 371.027344 Z M 102.878906 221.671875 " fill-opacity="1" fill-rule="nonzero"/></g></g><g clip-path="url(#c302900c87)"><g clip-path="url(#09d2c9c34f)"><path fill="#ffffff" d="M 173.164062 244.972656 L 217.738281 244.972656 L 217.738281 289.542969 L 173.164062 289.542969 Z M 173.164062 244.972656 " fill-opacity="1" fill-rule="nonzero"/></g></g><g clip-path="url(#f8785d27a2)"><g clip-path="url(#fe32846283)"><path fill="#ffffff" d="M 420.023438 244.972656 L 464.59375 244.972656 L 464.59375 289.542969 L 420.023438 289.542969 Z M 420.023438 244.972656 " fill-opacity="1" fill-rule="nonzero"/></g></g><path stroke-linecap="round" transform="matrix(0.75, 0, 0, 0.75, 183.0459, 359.723501)" fill="none" stroke-linejoin="miter" d="M 42.365886 58.035335 C 112.79818 20.6395 183.230475 20.655125 253.66277 58.087418 " stroke="#a6a6a6" stroke-width="60" stroke-opacity="1" stroke-miterlimit="4"/><g clip-path="url(#104c5664cd)"><path fill="#44857e" d="M 56.59375 114.792969 L 536.59375 114.792969 L 536.59375 174.792969 L 56.59375 174.792969 Z M 56.59375 114.792969 " fill-opacity="1" fill-rule="nonzero"/></g><g clip-path="url(#b1a6ecf67c)"><path fill="#44857e" d="M 56.59375 3.03125 L 536.378906 3.03125 L 536.378906 116.96875 L 56.59375 116.96875 Z M 56.59375 3.03125 " fill-opacity="1" fill-rule="nonzero"/></g><g clip-path="url(#e7354c66d0)"><g clip-path="url(#7a74f324b9)"><path fill="#44857e" d="M 600 174.796875 L -0.234375 174.796875 L -0.234375 18.796875 L 600 18.796875 Z M 600 174.796875 " fill-opacity="1" fill-rule="nonzero"/></g></g><g clip-path="url(#6a195c810e)"><path fill="#2a5d57" d="M 300 0 L 539.746094 0 L 539.746094 152.292969 L 300 152.292969 Z M 300 0 " fill-opacity="1" fill-rule="nonzero"/></g><g clip-path="url(#9177a037ce)"><g clip-path="url(#92230bcfc6)"><path fill="#44857e" d="M -3.40625 174.792969 L 596.339844 174.792969 L 596.339844 337.4375 L -3.40625 337.4375 Z M -3.40625 174.792969 " fill-opacity="1" fill-rule="nonzero"/></g></g><g clip-path="url(#f70a61f792)"><g clip-path="url(#b9d36a2c1b)"><g clip-path="url(#a6f921da31)"><path fill="#2a5d57" d="M 310.378906 79.175781 L 599.929688 173.621094 L 550.078125 326.457031 L 260.527344 232.011719 Z M 310.378906 79.175781 " fill-opacity="1" fill-rule="nonzero"/></g></g></g><g clip-path="url(#11dbfe4d5b)"><g clip-path="url(#8ff4633afc)"><path fill="#2a5d57" d="M 599.992188 138.441406 L 599.992188 205.871094 L 541.078125 205.871094 L 541.078125 138.441406 Z M 599.992188 138.441406 " fill-opacity="1" fill-rule="nonzero"/></g></g><g clip-path="url(#714bfa1c2b)"><g clip-path="url(#73c1cbeace)"><path fill="#2a5d57" d="M 536.589844 76.152344 L 536.589844 337.269531 L 300.382812 337.269531 L 300.382812 76.152344 Z M 536.589844 76.152344 " fill-opacity="1" fill-rule="nonzero"/></g></g><g clip-path="url(#36d460fabd)"><g clip-path="url(#6433065433)"><path fill="#25544f" d="M 1.746094 0 L 599.753906 0 L 599.753906 157.5 L 1.746094 157.5 Z M 1.746094 0 " fill-opacity="1" fill-rule="nonzero"/></g></g><path stroke-linecap="round" transform="matrix(-0.749995, -0.0027458, 0.0027458, -0.749995, 576.677016, 229.867129)" fill="none" stroke-linejoin="miter" d="M 65.716364 133.926902 C 268.121471 18.008017 470.529161 18.027406 672.939414 133.979862 " stroke="#1f433f" stroke-width="94" stroke-opacity="1" stroke-miterlimit="4"/><g clip-path="url(#8f8b346a1d)"><g clip-path="url(#dd07fd526f)"><path fill="#1b423d" d="M 296.597656 157.496094 L 296.597656 -0.0390625 L 451.113281 -0.0390625 L 451.113281 157.496094 Z M 296.597656 157.496094 " fill-opacity="1" fill-rule="nonzero"/></g></g><g clip-path="url(#ea5abf042e)"><g clip-path="url(#22283c5720)"><g clip-path="url(#933bcd29b0)"><path fill="#1b423d" d="M 364.695312 122.273438 L 333.6875 -29.054688 L 605.007812 -84.644531 L 636.015625 66.679688 Z M 364.695312 122.273438 " fill-opacity="1" fill-rule="nonzero"/></g></g></g><g clip-path="url(#a7abb373e4)"><path fill="#1b423d" d="M 296.59375 0 L 379.882812 0 L 379.882812 82.644531 L 296.59375 82.644531 Z M 296.59375 0 " fill-opacity="1" fill-rule="nonzero"/></g><g clip-path="url(#061e23f45b)"><g clip-path="url(#0057f3a4e7)"><path fill="#d1ba1d" d="M 258.824219 109.09375 L 341.175781 109.09375 L 341.175781 216.539062 L 258.824219 216.539062 Z M 258.824219 109.09375 " fill-opacity="1" fill-rule="nonzero"/></g></g><g clip-path="url(#d18e6503f1)"><g clip-path="url(#3d21cc1991)"><path fill="#ebd332" d="M 263.695312 109.09375 L 336.296875 109.09375 L 336.296875 166.808594 L 263.695312 166.808594 Z M 263.695312 109.09375 " fill-opacity="1" fill-rule="nonzero"/></g></g><g clip-path="url(#24c6c8d317)"><g clip-path="url(#9a2c058179)"><g clip-path="url(#f85a720815)"><path fill="#af9c15" d="M 303.398438 214.996094 L 310.722656 179.617188 L 341.953125 186.078125 L 334.628906 221.460938 Z M 303.398438 214.996094 " fill-opacity="1" fill-rule="nonzero"/></g></g></g><g clip-path="url(#67e7a6f6f0)"><path fill="#444343" d="M 1.777344 3.101562 L 294.84375 3.101562 C 284.847656 3.101562 274.878906 3.609375 264.9375 4.613281 C 255.160156 5.609375 245.460938 7.089844 235.832031 9.054688 C 226.390625 10.988281 216.9375 13.417969 207.738281 16.277344 C 198.644531 19.105469 189.585938 22.421875 180.808594 26.136719 C 163.335938 33.535156 146.738281 42.542969 131.015625 53.164062 C 115.414062 63.710938 100.953125 75.640625 87.632812 88.957031 C 74.316406 102.277344 62.386719 116.738281 51.839844 132.339844 C 41.21875 148.0625 32.210938 164.660156 24.8125 182.132812 C 21.101562 190.910156 17.785156 199.96875 14.953125 209.0625 C 12.09375 218.257812 9.664062 227.710938 7.730469 237.15625 C 5.765625 246.785156 4.285156 256.484375 3.289062 266.261719 C 2.28125 276.226562 1.777344 286.21875 1.777344 296.234375 Z M 1.777344 3.101562 " fill-opacity="1" fill-rule="nonzero"/></g><g clip-path="url(#857d825979)"><path fill="#444343" d="M 598.28125 1.585938 L 598.28125 294.648438 C 598.28125 284.65625 597.777344 274.6875 596.769531 264.742188 C 595.777344 254.96875 594.292969 245.265625 592.328125 235.636719 C 590.394531 226.195312 587.964844 216.742188 585.105469 207.546875 C 582.277344 198.453125 578.960938 189.390625 575.246094 180.613281 C 567.847656 163.140625 558.839844 146.542969 548.21875 130.820312 C 537.671875 115.21875 525.742188 100.757812 512.425781 87.4375 C 499.105469 74.125 484.644531 62.191406 469.042969 51.644531 C 453.320312 41.023438 436.722656 32.015625 419.25 24.617188 C 410.472656 20.90625 401.414062 17.589844 392.320312 14.761719 C 383.125 11.898438 373.671875 9.46875 364.226562 7.539062 C 354.597656 5.570312 344.898438 4.089844 335.121094 3.09375 C 325.15625 2.089844 315.164062 1.585938 305.148438 1.585938 Z M 598.28125 1.585938 " fill-opacity="1" fill-rule="nonzero"/></g><g clip-path="url(#5d5b264234)"><path fill="#444343" d="M 1.746094 599.957031 L 1.746094 306.890625 C 1.746094 316.886719 2.25 326.851562 3.257812 336.796875 C 4.25 346.570312 5.730469 356.273438 7.699219 365.902344 C 9.632812 375.34375 12.0625 384.796875 14.921875 393.996094 C 17.75 403.089844 21.066406 412.148438 24.78125 420.925781 C 32.175781 438.398438 41.1875 454.996094 51.808594 470.71875 C 62.355469 486.320312 74.285156 500.78125 87.601562 514.101562 C 100.921875 527.417969 115.382812 539.347656 130.984375 549.894531 C 146.707031 560.515625 163.304688 569.523438 180.777344 576.921875 C 189.554688 580.632812 198.613281 583.949219 207.707031 586.78125 C 216.902344 589.640625 226.355469 592.070312 235.800781 594.003906 C 245.429688 595.96875 255.128906 597.449219 264.90625 598.445312 C 274.871094 599.453125 284.859375 599.957031 294.878906 599.957031 Z M 1.746094 599.957031 " fill-opacity="1" fill-rule="nonzero"/></g><g clip-path="url(#59b8ee4f33)"><path fill="#444343" d="M 598.25 598.441406 L 305.183594 598.441406 C 315.179688 598.4375 325.144531 597.933594 335.089844 596.925781 C 344.867188 595.933594 354.566406 594.453125 364.195312 592.484375 C 373.636719 590.550781 383.089844 588.121094 392.289062 585.261719 C 401.382812 582.433594 410.441406 579.117188 419.21875 575.402344 C 436.691406 568.007812 453.289062 558.996094 469.011719 548.375 C 484.613281 537.828125 499.074219 525.898438 512.394531 512.582031 C 525.710938 499.261719 537.640625 484.800781 548.1875 469.199219 C 558.808594 453.476562 567.816406 436.878906 575.214844 419.40625 C 578.925781 410.628906 582.242188 401.570312 585.074219 392.476562 C 587.933594 383.28125 590.363281 373.828125 592.296875 364.382812 C 594.261719 354.757812 595.742188 345.054688 596.738281 335.277344 C 597.746094 325.3125 598.25 315.324219 598.25 305.308594 Z M 598.25 598.441406 " fill-opacity="1" fill-rule="nonzero"/></g></svg>