<svg xmlns="http://www.w3.org/2000/svg" xmlns:xlink="http://www.w3.org/1999/xlink" width="200" zoomAndPan="magnify"
    viewBox="0 0 150 149.999998" height="200" preserveAspectRatio="xMidYMid meet" version="1.0" style="color-scheme: only light;">
    <defs>
        <g />
        <clipPath id="c322298b60">
            <path
                d="M 75 0 C 33.578125 0 0 33.578125 0 75 C 0 116.421875 33.578125 150 75 150 C 116.421875 150 150 116.421875 150 75 C 150 33.578125 116.421875 0 75 0 Z M 75 0 "
                clip-rule="nonzero" />
        </clipPath>
    </defs>
    <g clip-path="url(#c322298b60)">
        <rect x="-15" width="180" fill="#0b1e1c" y="-15" height="179.999997" fill-opacity="1" />
    </g>
    <g fill="#061614" fill-opacity="1">
        <g transform="translate(36.386718, 80.624997)">
            <g>
                <path
                    d="M 1.4375 0 L 1.4375 -11.421875 L 3.859375 -11.421875 L 3.859375 -2 L 8.5 -2 L 8.5 0 Z M 1.4375 0 " />
            </g>
        </g>
    </g>
    <g fill="#061614" fill-opacity="1">
        <g transform="translate(45.423579, 80.624997)">
            <g>
                <path
                    d="M 3.15625 -4.390625 C 3.15625 -3.523438 3.296875 -2.867188 3.578125 -2.421875 C 3.859375 -1.984375 4.320312 -1.765625 4.96875 -1.765625 C 5.601562 -1.765625 6.054688 -1.984375 6.328125 -2.421875 C 6.609375 -2.859375 6.75 -3.515625 6.75 -4.390625 C 6.75 -5.253906 6.609375 -5.898438 6.328125 -6.328125 C 6.046875 -6.765625 5.585938 -6.984375 4.953125 -6.984375 C 4.316406 -6.984375 3.859375 -6.765625 3.578125 -6.328125 C 3.296875 -5.898438 3.15625 -5.253906 3.15625 -4.390625 Z M 9.1875 -4.390625 C 9.1875 -2.960938 8.8125 -1.847656 8.0625 -1.046875 C 7.3125 -0.242188 6.269531 0.15625 4.9375 0.15625 C 4.09375 0.15625 3.347656 -0.0234375 2.703125 -0.390625 C 2.066406 -0.765625 1.578125 -1.296875 1.234375 -1.984375 C 0.890625 -2.671875 0.71875 -3.472656 0.71875 -4.390625 C 0.71875 -5.816406 1.085938 -6.925781 1.828125 -7.71875 C 2.578125 -8.507812 3.628906 -8.90625 4.984375 -8.90625 C 5.816406 -8.90625 6.550781 -8.722656 7.1875 -8.359375 C 7.832031 -7.992188 8.328125 -7.46875 8.671875 -6.78125 C 9.015625 -6.101562 9.1875 -5.304688 9.1875 -4.390625 Z M 9.1875 -4.390625 " />
            </g>
        </g>
    </g>
    <g fill="#061614" fill-opacity="1">
        <g transform="translate(55.32741, 80.624997)">
            <g>
                <path
                    d="M 8.859375 -8.734375 L 8.859375 -7.53125 L 7.484375 -7.171875 C 7.734375 -6.785156 7.859375 -6.347656 7.859375 -5.859375 C 7.859375 -4.921875 7.53125 -4.191406 6.875 -3.671875 C 6.226562 -3.148438 5.320312 -2.890625 4.15625 -2.890625 L 3.734375 -2.90625 L 3.375 -2.953125 C 3.132812 -2.765625 3.015625 -2.554688 3.015625 -2.328125 C 3.015625 -1.984375 3.453125 -1.8125 4.328125 -1.8125 L 5.8125 -1.8125 C 6.769531 -1.8125 7.5 -1.601562 8 -1.1875 C 8.5 -0.78125 8.75 -0.175781 8.75 0.625 C 8.75 1.644531 8.320312 2.4375 7.46875 3 C 6.625 3.5625 5.40625 3.84375 3.8125 3.84375 C 2.59375 3.84375 1.660156 3.628906 1.015625 3.203125 C 0.367188 2.785156 0.046875 2.191406 0.046875 1.421875 C 0.046875 0.898438 0.207031 0.457031 0.53125 0.09375 C 0.863281 -0.257812 1.347656 -0.507812 1.984375 -0.65625 C 1.742188 -0.757812 1.53125 -0.929688 1.34375 -1.171875 C 1.164062 -1.410156 1.078125 -1.660156 1.078125 -1.921875 C 1.078125 -2.253906 1.171875 -2.53125 1.359375 -2.75 C 1.554688 -2.976562 1.835938 -3.195312 2.203125 -3.40625 C 1.742188 -3.601562 1.378906 -3.921875 1.109375 -4.359375 C 0.835938 -4.796875 0.703125 -5.3125 0.703125 -5.90625 C 0.703125 -6.863281 1.007812 -7.601562 1.625 -8.125 C 2.25 -8.644531 3.140625 -8.90625 4.296875 -8.90625 C 4.535156 -8.90625 4.820312 -8.878906 5.15625 -8.828125 C 5.5 -8.785156 5.71875 -8.753906 5.8125 -8.734375 Z M 2.109375 1.234375 C 2.109375 1.566406 2.265625 1.828125 2.578125 2.015625 C 2.898438 2.203125 3.34375 2.296875 3.90625 2.296875 C 4.757812 2.296875 5.425781 2.175781 5.90625 1.9375 C 6.394531 1.707031 6.640625 1.390625 6.640625 0.984375 C 6.640625 0.648438 6.492188 0.421875 6.203125 0.296875 C 5.921875 0.171875 5.484375 0.109375 4.890625 0.109375 L 3.65625 0.109375 C 3.21875 0.109375 2.847656 0.210938 2.546875 0.421875 C 2.253906 0.628906 2.109375 0.898438 2.109375 1.234375 Z M 2.984375 -5.875 C 2.984375 -5.40625 3.085938 -5.03125 3.296875 -4.75 C 3.515625 -4.476562 3.847656 -4.34375 4.296875 -4.34375 C 4.742188 -4.34375 5.070312 -4.476562 5.28125 -4.75 C 5.488281 -5.03125 5.59375 -5.40625 5.59375 -5.875 C 5.59375 -6.925781 5.160156 -7.453125 4.296875 -7.453125 C 3.421875 -7.453125 2.984375 -6.925781 2.984375 -5.875 Z M 2.984375 -5.875 " />
            </g>
        </g>
    </g>
    <g fill="#061614" fill-opacity="1">
        <g transform="translate(64.364271, 80.624997)">
            <g>
                <path
                    d="M 3.15625 -4.390625 C 3.15625 -3.523438 3.296875 -2.867188 3.578125 -2.421875 C 3.859375 -1.984375 4.320312 -1.765625 4.96875 -1.765625 C 5.601562 -1.765625 6.054688 -1.984375 6.328125 -2.421875 C 6.609375 -2.859375 6.75 -3.515625 6.75 -4.390625 C 6.75 -5.253906 6.609375 -5.898438 6.328125 -6.328125 C 6.046875 -6.765625 5.585938 -6.984375 4.953125 -6.984375 C 4.316406 -6.984375 3.859375 -6.765625 3.578125 -6.328125 C 3.296875 -5.898438 3.15625 -5.253906 3.15625 -4.390625 Z M 9.1875 -4.390625 C 9.1875 -2.960938 8.8125 -1.847656 8.0625 -1.046875 C 7.3125 -0.242188 6.269531 0.15625 4.9375 0.15625 C 4.09375 0.15625 3.347656 -0.0234375 2.703125 -0.390625 C 2.066406 -0.765625 1.578125 -1.296875 1.234375 -1.984375 C 0.890625 -2.671875 0.71875 -3.472656 0.71875 -4.390625 C 0.71875 -5.816406 1.085938 -6.925781 1.828125 -7.71875 C 2.578125 -8.507812 3.628906 -8.90625 4.984375 -8.90625 C 5.816406 -8.90625 6.550781 -8.722656 7.1875 -8.359375 C 7.832031 -7.992188 8.328125 -7.46875 8.671875 -6.78125 C 9.015625 -6.101562 9.1875 -5.304688 9.1875 -4.390625 Z M 9.1875 -4.390625 " />
            </g>
        </g>
    </g>
    <g fill="#061614" fill-opacity="1">
        <g transform="translate(74.268101, 80.624997)">
            <g />
        </g>
    </g>
    <g fill="#061614" fill-opacity="1">
        <g transform="translate(78.423336, 80.624997)">
            <g>
                <path
                    d="M 6.796875 0 L 6.34375 -1.1875 L 6.28125 -1.1875 C 5.875 -0.6875 5.457031 -0.335938 5.03125 -0.140625 C 4.613281 0.0546875 4.0625 0.15625 3.375 0.15625 C 2.539062 0.15625 1.878906 -0.0820312 1.390625 -0.5625 C 0.910156 -1.039062 0.671875 -1.722656 0.671875 -2.609375 C 0.671875 -3.535156 0.992188 -4.21875 1.640625 -4.65625 C 2.296875 -5.101562 3.273438 -5.347656 4.578125 -5.390625 L 6.09375 -5.4375 L 6.09375 -5.828125 C 6.09375 -6.710938 5.640625 -7.15625 4.734375 -7.15625 C 4.035156 -7.15625 3.21875 -6.941406 2.28125 -6.515625 L 1.484375 -8.125 C 2.492188 -8.65625 3.609375 -8.921875 4.828125 -8.921875 C 6.003906 -8.921875 6.90625 -8.664062 7.53125 -8.15625 C 8.15625 -7.644531 8.46875 -6.867188 8.46875 -5.828125 L 8.46875 0 Z M 6.09375 -4.046875 L 5.171875 -4.015625 C 4.484375 -3.992188 3.96875 -3.867188 3.625 -3.640625 C 3.289062 -3.410156 3.125 -3.0625 3.125 -2.59375 C 3.125 -1.925781 3.507812 -1.59375 4.28125 -1.59375 C 4.832031 -1.59375 5.269531 -1.75 5.59375 -2.0625 C 5.925781 -2.382812 6.09375 -2.804688 6.09375 -3.328125 Z M 6.09375 -4.046875 " />
            </g>
        </g>
    </g>
    <g fill="#061614" fill-opacity="1">
        <g transform="translate(88.085045, 80.624997)">
            <g>
                <path
                    d="M 4.875 -1.71875 C 5.476562 -1.71875 5.921875 -1.890625 6.203125 -2.234375 C 6.484375 -2.578125 6.632812 -3.179688 6.65625 -4.046875 L 6.65625 -4.34375 C 6.65625 -5.28125 6.507812 -5.953125 6.21875 -6.359375 C 5.9375 -6.765625 5.472656 -6.96875 4.828125 -6.96875 C 3.710938 -6.96875 3.15625 -6.085938 3.15625 -4.328125 C 3.15625 -3.453125 3.289062 -2.796875 3.5625 -2.359375 C 3.84375 -1.929688 4.28125 -1.71875 4.875 -1.71875 Z M 4.015625 0.15625 C 2.984375 0.15625 2.175781 -0.238281 1.59375 -1.03125 C 1.007812 -1.832031 0.71875 -2.941406 0.71875 -4.359375 C 0.71875 -5.785156 1.015625 -6.898438 1.609375 -7.703125 C 2.210938 -8.503906 3.03125 -8.90625 4.0625 -8.90625 C 4.613281 -8.90625 5.09375 -8.800781 5.5 -8.59375 C 5.914062 -8.382812 6.28125 -8.0625 6.59375 -7.625 L 6.65625 -7.625 L 6.875 -8.734375 L 8.890625 -8.734375 L 8.890625 3.84375 L 6.5 3.84375 L 6.5 0.1875 C 6.5 -0.132812 6.53125 -0.578125 6.59375 -1.140625 L 6.5 -1.140625 C 6.238281 -0.710938 5.894531 -0.390625 5.46875 -0.171875 C 5.050781 0.046875 4.566406 0.15625 4.015625 0.15625 Z M 4.015625 0.15625 " />
            </g>
        </g>
    </g>
    <g fill="#061614" fill-opacity="1">
        <g transform="translate(98.207572, 80.624997)">
            <g>
                <path
                    d="M 7.4375 0 L 7.125 -1.125 L 7 -1.125 C 6.738281 -0.71875 6.375 -0.398438 5.90625 -0.171875 C 5.4375 0.046875 4.90625 0.15625 4.3125 0.15625 C 3.28125 0.15625 2.503906 -0.117188 1.984375 -0.671875 C 1.460938 -1.222656 1.203125 -2.015625 1.203125 -3.046875 L 1.203125 -8.734375 L 3.59375 -8.734375 L 3.59375 -3.640625 C 3.59375 -3.003906 3.703125 -2.53125 3.921875 -2.21875 C 4.148438 -1.90625 4.507812 -1.75 5 -1.75 C 5.664062 -1.75 6.144531 -1.96875 6.4375 -2.40625 C 6.738281 -2.851562 6.890625 -3.59375 6.890625 -4.625 L 6.890625 -8.734375 L 9.265625 -8.734375 L 9.265625 0 Z M 7.4375 0 " />
            </g>
        </g>
    </g>
    <g fill="#061614" fill-opacity="1">
        <g transform="translate(108.720629, 80.624997)">
            <g>
                <path
                    d="M 1.15625 -11 C 1.15625 -11.769531 1.585938 -12.15625 2.453125 -12.15625 C 3.316406 -12.15625 3.75 -11.769531 3.75 -11 C 3.75 -10.625 3.640625 -10.332031 3.421875 -10.125 C 3.203125 -9.925781 2.878906 -9.828125 2.453125 -9.828125 C 1.585938 -9.828125 1.15625 -10.21875 1.15625 -11 Z M 3.640625 0 L 1.25 0 L 1.25 -8.734375 L 3.640625 -8.734375 Z M 3.640625 0 " />
            </g>
        </g>
    </g>
</svg>